<?xml version="1.0" encoding="UTF-8"?>
<svg id="Capa_2" data-name="Capa 2" xmlns="http://www.w3.org/2000/svg" viewBox="0 0 609.44 612.16">
  <defs>
    <style>
      .cls-1 {
        fill: #5db350;
      }

      .cls-1, .cls-2 {
        fill-rule: evenodd;
      }

      .cls-2 {
        fill: #fff;
        stroke: #b2b2b2;
        stroke-miterlimit: 10;
        stroke-width: 2px;
      }
    </style>
  </defs>
  <g id="Capa_1-2" data-name="Capa 1">
    <path class="cls-2" d="M306.19,1C139.61,1,4.02,136.54,3.96,303.13c-.03,53.26,13.9,105.24,40.34,151.05L1.42,610.75l160.23-42.01c44.14,24.07,93.84,36.76,144.43,36.77h.13c166.58,0,302.17-135.55,302.24-302.15.03-80.73-31.38-156.65-88.44-213.76C462.94,32.5,387.06,1.03,306.19,1Z"/>
    <path class="cls-1" d="M306.29,52.03c-138.56,0-251.26,112.66-251.31,251.12-.02,47.45,13.26,93.66,38.4,133.64l5.97,9.5-25.38,92.67,95.08-24.93,9.17,5.45c38.57,22.88,82.78,34.99,127.86,35h.1c138.47,0,251.15-112.66,251.21-251.13.03-67.11-26.08-130.21-73.51-177.67-47.43-47.46-110.5-73.62-177.6-73.65ZM454.43,420.96c-3.04,7.6-10.6,14.92-19.41,20.9-44.7,30.38-81.7,11.55-128.1-8.75-78.42-34.35-125.62-117.87-129.33-123.25-3.73-5.36-30.39-43.65-28.94-82.17,1.44-38.54,22.39-56.73,29.86-64.3,12.5-12.66,45.82-14.27,53.36,5.93,5.93,15.92,20.15,55.05,21.96,59.03,1.82,3.99,2.95,8.62.15,13.75-.44.8-.86,1.57-1.24,2.29-7.04,13.08-29.92,27.37-23.38,39.6,4.28,8,19.03,34.23,41.53,55.86,16.04,15.41,30.84,25.11,42.16,31.41,9.83,5.47,27.39,18.06,36.42,8.5,4.75-5.05,20.41-22.14,25.94-29.76,5.52-7.65,10.69-6.15,17.77-3.27,7.09,2.88,44.87,23.27,52.56,27.48,7.69,4.2,12.82,6.37,14.66,9.7,1.84,3.34,1.26,19.01-5.95,37.06Z"/>
  </g>
</svg>